<svg width="206" height="206" viewBox="0 0 206 206" fill="none" xmlns="http://www.w3.org/2000/svg">
<g filter="url(#filter0_di_129_21)">
<path d="M103.89 0.598828C99.7703 -0.679873 95.7132 0.214669 93.1033 2.09657C90.5681 3.92463 89.3001 6.71467 90.1891 9.52768C91.5923 13.9679 92.3333 18.5873 92.3333 23.3324C92.3333 34.1658 88.477 41.7534 81.8416 48.0434C75.0964 54.4375 65.3322 59.6431 53.0041 65.5166C52.8103 65.6089 52.6298 65.7145 52.4653 65.8319L50.9721 66.8973C24.5211 78.9965 7 100.063 7 124.029C7 161.569 49.9807 192 103 192C156.019 192 199 161.569 199 124.029C199 113.008 195.292 102.592 188.708 93.3796C188.173 92.6302 187.144 92.1193 185.967 92.0175C184.789 91.9156 183.618 92.2362 182.843 92.8723C181.84 93.6955 180.858 94.508 179.891 95.3085C167.399 105.642 157.319 113.981 136.652 117.706C135.773 117.864 135.227 117.747 134.84 117.575C134.384 117.374 133.885 116.971 133.543 116.328C132.831 114.987 133.136 113.278 134.596 112.157C145.649 103.672 153.502 92.1547 156.307 75.7701C161.563 45.0786 141.862 12.3864 103.89 0.598828Z" fill="#AE2AFF"/>
<path d="M51.5961 68.2613C51.6828 68.2216 51.7656 68.1738 51.8433 68.1183L53.3365 67.053L52.4653 65.8319L53.3365 67.053C53.4254 66.9895 53.5297 66.9277 53.6492 66.8708C65.9621 61.0045 75.9337 55.7106 82.8735 49.132C89.7885 42.577 93.8333 34.6033 93.8333 23.3324C93.8333 18.4294 93.0674 13.6576 91.6194 9.07568C90.9739 7.03318 91.8272 4.86601 93.9806 3.31325C96.2045 1.70971 99.7713 0.891041 103.445 2.03139C140.801 13.6275 159.941 45.6677 154.829 75.5169C152.09 91.5082 144.454 102.699 133.683 110.967C131.67 112.513 131.146 115.014 132.219 117.032C132.724 117.983 133.482 118.615 134.233 118.947L134.84 117.575L134.233 118.947C134.921 119.251 135.774 119.388 136.918 119.182C157.972 115.387 168.305 106.839 180.819 96.4875L180.847 96.4642L180.849 96.4625C181.816 95.6623 182.795 94.8522 183.795 94.0316C184.213 93.6881 184.975 93.4373 185.838 93.5119C186.711 93.5874 187.276 93.9554 187.488 94.2518C193.913 103.242 197.5 113.358 197.5 124.029C197.5 142.183 187.11 158.764 170.015 170.868C152.925 182.968 129.236 190.5 103 190.5C76.764 190.5 53.0752 182.968 35.9845 170.868C18.8902 158.764 8.5 142.183 8.5 124.029C8.5 100.86 25.4574 80.2177 51.5961 68.2613Z" stroke="#DE09F0" stroke-width="3" stroke-linejoin="round"/>
<path d="M51.5961 68.2613C51.6828 68.2216 51.7656 68.1738 51.8433 68.1183L53.3365 67.053L52.4653 65.8319L53.3365 67.053C53.4254 66.9895 53.5297 66.9277 53.6492 66.8708C65.9621 61.0045 75.9337 55.7106 82.8735 49.132C89.7885 42.577 93.8333 34.6033 93.8333 23.3324C93.8333 18.4294 93.0674 13.6576 91.6194 9.07568C90.9739 7.03318 91.8272 4.86601 93.9806 3.31325C96.2045 1.70971 99.7713 0.891041 103.445 2.03139C140.801 13.6275 159.941 45.6677 154.829 75.5169C152.09 91.5082 144.454 102.699 133.683 110.967C131.67 112.513 131.146 115.014 132.219 117.032C132.724 117.983 133.482 118.615 134.233 118.947L134.84 117.575L134.233 118.947C134.921 119.251 135.774 119.388 136.918 119.182C157.972 115.387 168.305 106.839 180.819 96.4875L180.847 96.4642L180.849 96.4625C181.816 95.6623 182.795 94.8522 183.795 94.0316C184.213 93.6881 184.975 93.4373 185.838 93.5119C186.711 93.5874 187.276 93.9554 187.488 94.2518C193.913 103.242 197.5 113.358 197.5 124.029C197.5 142.183 187.11 158.764 170.015 170.868C152.925 182.968 129.236 190.5 103 190.5C76.764 190.5 53.0752 182.968 35.9845 170.868C18.8902 158.764 8.5 142.183 8.5 124.029C8.5 100.86 25.4574 80.2177 51.5961 68.2613Z" stroke="black" stroke-opacity="0.1" stroke-width="3" stroke-linejoin="round"/>
</g>
<defs>
<filter id="filter0_di_129_21" x="0" y="0" width="206" height="206" filterUnits="userSpaceOnUse" color-interpolation-filters="sRGB">
<feFlood flood-opacity="0" result="BackgroundImageFix"/>
<feColorMatrix in="SourceAlpha" type="matrix" values="0 0 0 0 0 0 0 0 0 0 0 0 0 0 0 0 0 0 127 0" result="hardAlpha"/>
<feOffset dy="7"/>
<feGaussianBlur stdDeviation="3.5"/>
<feComposite in2="hardAlpha" operator="out"/>
<feColorMatrix type="matrix" values="0 0 0 0 0 0 0 0 0 0 0 0 0 0 0 0 0 0 0.25 0"/>
<feBlend mode="normal" in2="BackgroundImageFix" result="effect1_dropShadow_129_21"/>
<feBlend mode="normal" in="SourceGraphic" in2="effect1_dropShadow_129_21" result="shape"/>
<feColorMatrix in="SourceAlpha" type="matrix" values="0 0 0 0 0 0 0 0 0 0 0 0 0 0 0 0 0 0 127 0" result="hardAlpha"/>
<feOffset dy="10"/>
<feGaussianBlur stdDeviation="5"/>
<feComposite in2="hardAlpha" operator="arithmetic" k2="-1" k3="1"/>
<feColorMatrix type="matrix" values="0 0 0 0 0 0 0 0 0 0 0 0 0 0 0 0 0 0 0.1 0"/>
<feBlend mode="normal" in2="shape" result="effect2_innerShadow_129_21"/>
</filter>
</defs>
</svg>
