<svg width="29" height="29" viewBox="0 0 29 29" fill="none" xmlns="http://www.w3.org/2000/svg">
<path d="M14.1667 0C6.34263 0 0 6.34263 0 14.1667C0 21.9907 6.34263 28.3333 14.1667 28.3333C21.5294 28.3333 27.5794 22.7172 28.2681 15.5346C28.3001 15.2003 28.1284 14.8794 27.8325 14.7207C27.5365 14.5619 27.1742 14.5963 26.9135 14.8079C25.4807 15.9706 23.6561 16.6667 21.6667 16.6667C17.0643 16.6667 13.3333 12.9357 13.3333 8.33333C13.3333 5.59983 14.6486 3.17372 16.6843 1.65278C16.9535 1.45168 17.0755 1.10861 16.9939 0.782688C16.9122 0.456768 16.6429 0.211762 16.3107 0.161307C15.611 0.0550364 14.895 0 14.1667 0Z" fill="#AE2AFF"/>
</svg>
