<svg width="36" height="36" viewBox="0 0 36 36" fill="none" xmlns="http://www.w3.org/2000/svg">
<path d="M18 0.0833435C18.6903 0.0833435 19.25 0.642988 19.25 1.33334V3.00001C19.25 3.69037 18.6903 4.25001 18 4.25001C17.3096 4.25001 16.75 3.69037 16.75 3.00001V1.33334C16.75 0.642988 17.3096 0.0833435 18 0.0833435Z" fill="#67C8FF"/>
<path d="M18 8.41668C12.7073 8.41668 8.41665 12.7073 8.41665 18C8.41665 23.2927 12.7073 27.5833 18 27.5833C23.2927 27.5833 27.5833 23.2927 27.5833 18C27.5833 12.7073 23.2927 8.41668 18 8.41668Z" fill="#67C8FF"/>
<path d="M7.09877 5.33105C6.61062 4.8429 5.81916 4.8429 5.33101 5.33105C4.84285 5.81921 4.84285 6.61066 5.33101 7.09882L6.50952 8.27733C6.99767 8.76549 7.78913 8.76549 8.27728 8.27733C8.76544 7.78917 8.76544 6.99772 8.27728 6.50956L7.09877 5.33105Z" fill="#67C8FF"/>
<path d="M35.9166 18C35.9166 18.6904 35.357 19.25 34.6666 19.25H33C32.3096 19.25 31.75 18.6904 31.75 18C31.75 17.3097 32.3096 16.75 33 16.75H34.6666C35.357 16.75 35.9166 17.3097 35.9166 18Z" fill="#67C8FF"/>
<path d="M30.6689 7.0988C31.1571 6.61065 31.1571 5.81919 30.6689 5.33104C30.1808 4.84288 29.3893 4.84288 28.9012 5.33104L27.7227 6.50955C27.2345 6.9977 27.2345 7.78916 27.7227 8.27732C28.2108 8.76547 29.0023 8.76547 29.4904 8.27732L30.6689 7.0988Z" fill="#67C8FF"/>
<path d="M18 31.75C18.6903 31.75 19.25 32.3097 19.25 33V34.6667C19.25 35.357 18.6903 35.9167 18 35.9167C17.3096 35.9167 16.75 35.357 16.75 34.6667V33C16.75 32.3097 17.3096 31.75 18 31.75Z" fill="#67C8FF"/>
<path d="M29.4905 27.7227C29.0024 27.2346 28.2109 27.2346 27.7228 27.7227C27.2346 28.2109 27.2346 29.0023 27.7228 29.4905L28.9013 30.669C29.3894 31.1571 30.1809 31.1571 30.669 30.669C31.1572 30.1808 31.1572 29.3894 30.669 28.9012L29.4905 27.7227Z" fill="#67C8FF"/>
<path d="M4.24998 18C4.24998 18.6904 3.69034 19.25 2.99998 19.25H1.33331C0.642957 19.25 0.083313 18.6904 0.083313 18C0.083313 17.3097 0.642957 16.75 1.33331 16.75H2.99998C3.69034 16.75 4.24998 17.3097 4.24998 18Z" fill="#67C8FF"/>
<path d="M8.27717 29.4905C8.76533 29.0023 8.76533 28.2109 8.27717 27.7227C7.78902 27.2345 6.99756 27.2345 6.50941 27.7227L5.3309 28.9012C4.84274 29.3894 4.84274 30.1808 5.3309 30.669C5.81905 31.1571 6.61051 31.1571 7.09866 30.669L8.27717 29.4905Z" fill="#67C8FF"/>
</svg>
