<svg width="41" height="41" viewBox="0 0 41 41" fill="none" xmlns="http://www.w3.org/2000/svg">
<path d="M23.5682 7.06587C21.8899 5.33256 19.11 5.33256 17.4317 7.06586L9.23431 15.5319C8.76352 16.0181 8.44716 16.6328 8.32509 17.2985C7.32954 22.7275 7.25606 28.2855 8.10772 33.739L8.40925 35.6697C8.50448 36.2796 9.02973 36.7292 9.64697 36.7292H15.3749C15.8467 36.7292 16.2291 36.3467 16.2291 35.875V23.9167H24.7708V35.875C24.7708 36.3467 25.1532 36.7292 25.6249 36.7292H31.3528C31.9701 36.7292 32.4953 36.2796 32.5906 35.6697L32.8921 33.739C33.7437 28.2855 33.6703 22.7275 32.6747 17.2985C32.5526 16.6328 32.2363 16.0181 31.7655 15.5319L23.5682 7.06587Z" fill="#8C9BDB"/>
</svg>
