<svg width="41" height="41" viewBox="0 0 41 41" fill="none" xmlns="http://www.w3.org/2000/svg">
<path d="M22.275 6.11918C21.2508 5.58467 19.8441 5.57665 18.8128 6.10925C14.4077 8.38431 10.4159 10.9909 6.92066 13.8791C6.45458 14.2642 6.14615 14.8032 6.15142 15.4193C6.15669 16.0333 6.47213 16.5664 6.93667 16.9462C10.4037 19.7811 14.4001 22.3908 18.7252 24.6481C19.7493 25.1826 21.156 25.1907 22.1873 24.658C26.5924 22.383 30.5842 19.7764 34.0794 16.8882C34.5455 16.5031 34.854 15.9641 34.8487 15.348C34.8434 14.734 34.528 14.2009 34.0634 13.8211C30.5964 10.9862 26.6 8.37652 22.275 6.11918Z" fill="#7979B2"/>
<path d="M35.8034 23.4579C36.4036 23.0832 36.5864 22.2928 36.2116 21.6926C35.8369 21.0923 35.0465 20.9095 34.4463 21.2843L24.0131 27.798C23.0837 28.3782 21.8211 28.7017 20.4998 28.7018C19.1784 28.7019 17.9157 28.3785 16.9861 27.7983L6.66717 21.3584C6.06687 20.9837 5.27653 21.1666 4.90188 21.7669C4.52724 22.3672 4.71017 23.1576 5.31047 23.5322L15.6294 29.9722C17.0453 30.8559 18.8019 31.2644 20.4999 31.2643C22.1979 31.2642 23.9544 30.8555 25.3702 29.9716L35.8034 23.4579Z" fill="#7979B2"/>
<path d="M35.8035 29.8722C36.4037 29.4974 36.5864 28.707 36.2116 28.1068C35.8368 27.5066 35.0464 27.3239 34.4462 27.6987L25.4109 33.3411C24.0907 34.1656 22.3245 34.6113 20.4997 34.6114C18.6748 34.6115 16.9086 34.166 15.588 33.3416L6.6673 27.7728C6.06705 27.398 5.27668 27.5809 4.90196 28.1811C4.52725 28.7814 4.71008 29.5718 5.31033 29.9465L14.231 35.5153C16.0381 36.6434 18.2983 37.174 20.4998 37.1739C22.7014 37.1737 24.9615 36.6429 26.7683 35.5146L35.8035 29.8722Z" fill="#7979B2"/>
</svg>
