<svg width="41" height="41" viewBox="0 0 41 41" fill="none" xmlns="http://www.w3.org/2000/svg">
<path d="M8.54197 16.845C11.8158 23.9754 17.6412 29.6445 24.8838 32.7178L26.0448 33.2351C28.7009 34.4185 31.8233 33.5194 33.4434 31.1047L34.9605 28.8434C35.4538 28.1082 35.3036 27.1179 34.6145 26.562L29.4693 22.4111C28.7136 21.8014 27.6023 21.9434 27.0241 22.7236L25.4324 24.8714C21.3481 22.8567 18.0322 19.5407 16.0175 15.4564L18.1653 13.8647C18.9454 13.2866 19.0874 12.1753 18.4777 11.4195L14.3267 6.27414C13.7709 5.5852 12.7809 5.43493 12.0457 5.9279L9.76876 7.45463C7.33892 9.08388 6.44482 12.2321 7.65557 14.8953L8.54063 16.8421L8.54197 16.845Z" fill="#8C9BDB"/>
</svg>
