<svg width="41" height="41" viewBox="0 0 41 41" fill="none" xmlns="http://www.w3.org/2000/svg">
<path d="M8.54203 16.845C11.8159 23.9754 17.6413 29.6445 24.8839 32.7178L26.0448 33.2351C28.701 34.4185 31.8234 33.5194 33.4434 31.1047L34.9606 28.8434C35.4539 28.1082 35.3037 27.1179 34.6146 26.562L29.4694 22.4111C28.7136 21.8014 27.6023 21.9434 27.0242 22.7236L25.4325 24.8714C21.3482 22.8567 18.0322 19.5407 16.0175 15.4564L18.1653 13.8647C18.9455 13.2866 19.0875 12.1753 18.4778 11.4195L14.3268 6.27414C13.771 5.5852 12.781 5.43493 12.0458 5.9279L9.76882 7.45463C7.33899 9.08388 6.44488 12.2321 7.65563 14.8953L8.54069 16.8421L8.54203 16.845Z" fill="#7979B2"/>
</svg>
