<svg width="41" height="41" viewBox="0 0 41 41" fill="none" xmlns="http://www.w3.org/2000/svg">
<path fill-rule="evenodd" clip-rule="evenodd" d="M12.3854 9.32954V11.7564L9.49161 11.99C7.44558 12.1551 5.77658 13.6957 5.44844 15.722C5.37712 16.1623 5.31227 16.6035 5.25387 17.0453C5.22489 17.2645 5.3418 17.4767 5.54167 17.5713L5.67331 17.6337C14.9474 22.0249 26.0527 22.0249 35.3267 17.6337L35.4583 17.5714C35.6582 17.4767 35.7751 17.2645 35.7461 17.0453C35.6877 16.6035 35.6228 16.1623 35.5515 15.722C35.2234 13.6957 33.5544 12.1551 31.5084 11.99L28.6146 11.7564V9.32954C28.6146 7.84971 27.5319 6.59255 26.0685 6.37304L23.9844 6.06043C21.6744 5.71393 19.3256 5.71393 17.0155 6.06043L14.9315 6.37304C13.4681 6.59255 12.3854 7.84971 12.3854 9.32954ZM23.6043 8.59458C21.5463 8.28588 19.4537 8.28588 17.3957 8.59458L15.3116 8.90719C15.1026 8.93855 14.9479 9.11814 14.9479 9.32954V11.576C18.6463 11.3642 22.3537 11.3642 26.0521 11.576V9.32954C26.0521 9.11814 25.8974 8.93854 25.6883 8.90719L23.6043 8.59458Z" fill="#8C9BDB"/>
<path d="M36.0771 20.6211C36.0644 20.3817 35.8138 20.2322 35.5946 20.3292C26.0776 24.543 14.9224 24.543 5.40536 20.3292C5.18619 20.2322 4.9356 20.3817 4.92286 20.6211C4.749 23.8864 4.92419 27.1658 5.44844 30.403C5.77658 32.4293 7.44557 33.9699 9.49161 34.135L12.6895 34.3932C17.888 34.8128 23.1119 34.8128 28.3105 34.3932L31.5084 34.135C33.5544 33.9699 35.2234 32.4293 35.5515 30.403C36.0758 27.1658 36.251 23.8865 36.0771 20.6211Z" fill="#8C9BDB"/>
</svg>
