<svg width="41" height="41" viewBox="0 0 41 41" fill="none" xmlns="http://www.w3.org/2000/svg">
<path d="M22.2749 6.11918C21.2508 5.58467 19.8441 5.57665 18.8128 6.10925C14.4076 8.38431 10.4158 10.9909 6.9206 13.8791C6.45452 14.2642 6.14609 14.8032 6.15136 15.4193C6.15662 16.0333 6.47206 16.5664 6.93661 16.9462C10.4037 19.7811 14.4 22.3908 18.7251 24.6481C19.7492 25.1826 21.1559 25.1907 22.1872 24.658C26.5924 22.383 30.5842 19.7764 34.0794 16.8882C34.5455 16.5031 34.8539 15.9641 34.8486 15.348C34.8434 14.734 34.5279 14.2009 34.0634 13.8211C30.5963 10.9862 26.6 8.37652 22.2749 6.11918Z" fill="#8C9BDB"/>
<path d="M35.8033 23.4579C36.4035 23.0832 36.5863 22.2928 36.2116 21.6926C35.8368 21.0923 35.0465 20.9095 34.4462 21.2843L24.013 27.798C23.0837 28.3782 21.821 28.7017 20.4997 28.7018C19.1784 28.7019 17.9156 28.3785 16.986 27.7983L6.66711 21.3584C6.06681 20.9837 5.27646 21.1666 4.90182 21.7669C4.52717 22.3672 4.7101 23.1576 5.3104 23.5322L15.6293 29.9722C17.0453 30.8559 18.8019 31.2644 20.4998 31.2643C22.1978 31.2642 23.9543 30.8555 25.3701 29.9716L35.8033 23.4579Z" fill="#8C9BDB"/>
<path d="M35.8034 29.8722C36.4036 29.4974 36.5863 28.707 36.2115 28.1068C35.8367 27.5066 35.0463 27.3239 34.4461 27.6987L25.4109 33.3411C24.0906 34.1656 22.3245 34.6113 20.4996 34.6114C18.6748 34.6115 16.9085 34.166 15.5879 33.3416L6.66724 27.7728C6.06699 27.398 5.27662 27.5809 4.9019 28.1811C4.52718 28.7814 4.71002 29.5718 5.31027 29.9465L14.231 35.5153C16.038 36.6434 18.2982 37.174 20.4998 37.1739C22.7013 37.1737 24.9614 36.6429 26.7682 35.5146L35.8034 29.8722Z" fill="#8C9BDB"/>
</svg>
