<svg width="41" height="41" viewBox="0 0 41 41" fill="none" xmlns="http://www.w3.org/2000/svg">
<path fill-rule="evenodd" clip-rule="evenodd" d="M14.5208 5.97917C10.2751 5.97917 6.83331 9.42098 6.83331 13.6667V30.75H6.89386C7.30833 33.6476 9.80029 35.875 12.8125 35.875H32.4583C33.4018 35.875 34.1666 35.1102 34.1666 34.1667V8.54167C34.1666 7.12644 33.0194 5.97917 31.6041 5.97917H14.5208ZM12.8125 26.4792H31.6041V33.3125H12.8125C10.9255 33.3125 9.39581 31.7828 9.39581 29.8958C9.39581 28.0089 10.9255 26.4792 12.8125 26.4792ZM26.5123 14.591C27.0228 14.1009 27.0393 13.2898 26.5493 12.7794C26.0592 12.2689 25.2481 12.2524 24.7377 12.7424L20.2864 17.0156L17.9706 14.7924C17.4602 14.3024 16.6491 14.3189 16.159 14.8294C15.669 15.3398 15.6855 16.1509 16.196 16.641L19.3991 19.716C19.8949 20.1919 20.678 20.1919 21.1737 19.716L26.5123 14.591Z" fill="#8C9BDB"/>
</svg>
