<svg width="41" height="41" viewBox="0 0 41 41" fill="none" xmlns="http://www.w3.org/2000/svg">
<path fill-rule="evenodd" clip-rule="evenodd" d="M14.5209 5.97917C10.2752 5.97917 6.83337 9.42098 6.83337 13.6667V30.75H6.89392C7.30839 33.6476 9.80035 35.875 12.8125 35.875H32.4584C33.4019 35.875 34.1667 35.1102 34.1667 34.1667V8.54167C34.1667 7.12644 33.0194 5.97917 31.6042 5.97917H14.5209ZM12.8125 26.4792H31.6042V33.3125H12.8125C10.9256 33.3125 9.39587 31.7828 9.39587 29.8958C9.39587 28.0089 10.9256 26.4792 12.8125 26.4792ZM26.5123 14.591C27.0228 14.1009 27.0394 13.2898 26.5493 12.7794C26.0593 12.2689 25.2482 12.2524 24.7377 12.7424L20.2865 17.0156L17.9707 14.7924C17.4602 14.3024 16.6491 14.3189 16.1591 14.8294C15.6691 15.3398 15.6856 16.1509 16.1961 16.641L19.3992 19.716C19.895 20.1919 20.678 20.1919 21.1738 19.716L26.5123 14.591Z" fill="#7979B2"/>
</svg>
